<?xml version="1.0" encoding="utf-8"?>
<!-- Generator: Adobe Illustrator 23.0.2, SVG Export Plug-In . SVG Version: 6.00 Build 0)  -->
<svg version="1.1" xmlns="http://www.w3.org/2000/svg" xmlns:xlink="http://www.w3.org/1999/xlink" x="0px" y="0px"
	 viewBox="0 0 200.4 66.5" style="enable-background:new 0 0 200.4 66.5;" xml:space="preserve">
<style type="text/css">
	.st0{display:none;}
	.st1{display:inline;}
	.st2{fill:#8C98A4;}
	.st3{display:inline;fill:#8C98A4;}
	.st4{fill:#7A848C;}
	.st5{fill:#CCCCCC;}
</style>
<g id="Layer_1" class="st0">
	<g class="st1">
		<path id="arrow_1_" class="st2" d="M120.9,47.6c-12.1,5.1-25.2,7.6-37.1,7.6c-17.7,0-34.8-4.8-48.7-12.9c-1.2-0.7-2.1,0.6-1.1,1.5
			c12.8,11.5,29.8,18.5,48.7,18.5c13.4,0,29-4.3,39.8-12.2C124.2,48.8,122.6,46.8,120.9,47.6z"/>
		<path id="arrow" class="st2" d="M114.1,43.1c-0.9,0.7-0.7,1.6,0.3,1.5c3.4-0.4,11.2-1.3,12.6,0.5c1.4,1.8-1.5,9-2.8,12.3
			c-0.4,1,0.5,1.4,1.3,0.7c5.8-4.8,7.3-15,6-16.4C130.3,40,120.2,38.8,114.1,43.1z"/>
		<path id="z" class="st2" d="M135.1,30.8c-3.3-1.9-7.2-2.4-10.8-2.3l9.8-14c0.9-1.2,1.4-2,1.4-2.6V8.3c0-0.7-0.5-1-1.1-1h-18.9
			c-0.6,0-1,0.5-1,1v4.2l0,0c0,0.7,0.5,1,1.1,1h9.9l-11.4,16.2c-0.7,1-0.7,2.2-0.7,2.9v4.3c0,0.7,0.7,1.3,1.3,0.9
			c6.4-3.4,14.1-3.1,19.9,0c0.7,0.4,1.4-0.4,1.4-0.9v-4.4C136,31.8,135.8,31.3,135.1,30.8z"/>
		<path id="m" class="st2" d="M40.1,38.8h5.8c0.7,0,1.1-0.5,1.1-1V22.2c0-3.4-0.2-8.1,4-8.1c4.1,0,3.5,4.8,3.5,8.1v15.6
			c0,0.6,0.5,1,1,1h5.8c0.7,0,1.1-0.5,1.1-1V22.2c0-1.7-0.1-4.2,0.6-5.7c0.6-1.5,2-2.4,3.4-2.4c1.7,0,3,0.6,3.3,2.5
			c0.3,1.2,0.2,4.3,0.2,5.5v15.6c0,0.6,0.5,1,1,1h5.8c0.7,0,1.1-0.5,1.1-1V19.1c0-3.2,0.4-6.8-1.5-9.2c-1.6-2.2-4.3-3.3-6.6-3.3
			c-3.3,0-6.5,1.8-7.9,5.5c-1.6-3.7-3.8-5.5-7.4-5.5c-3.5,0-6.1,1.8-7.5,5.5h-0.1V8.3c0-0.6-0.5-0.9-1-1h-5.3c-0.7,0-1.1,0.5-1.1,1
			v29.4C39.1,38.3,39.5,38.7,40.1,38.8z"/>
		<path id="o" class="st2" d="M151.7,6.7c-8.3,0-12.9,7.2-12.9,16.3s4.6,16.4,12.9,16.4c8,0,13.1-7.2,13.1-16.1
			C164.9,14.1,160.3,6.7,151.7,6.7z M151.7,33.3c-4.5,0-4.5-7.7-4.5-11.3s0.3-9.3,4.5-9.3c1.9,0,3.1,0.8,3.7,2.9
			c0.7,2.3,0.8,5.3,0.8,7.8C156.4,27.2,156.2,33.3,151.7,33.3z"/>
		<path id="n" class="st2" d="M184.5,6.7c-4,0-6.2,2-7.8,6h-0.1V8.2c-0.1-0.5-0.6-0.8-1-0.8h-5.3c-0.6,0-1,0.5-1.1,0.9v29.4
			c0,0.6,0.5,1,1,1h5.7c0.7,0,1.1-0.5,1.1-1V21.9c0-2,0.1-3.8,0.9-5.6c0.7-1.4,2-2.3,3.3-2.3c4,0,3.6,4.7,3.6,7.9v16
			c0.1,0.5,0.5,0.9,1,0.9h5.8c0.6,0,1-0.4,1.1-0.9V19.4c0-2.9,0-6.8-1.5-9.1C189.6,7.6,187.1,6.7,184.5,6.7z"/>
		<path id="a_1_" class="st2" d="M99.6,18.9c-3.3,0.4-7.6,0.7-10.8,2c-3.6,1.6-6.1,4.7-6.1,9.4c0,6,3.7,8.9,8.6,8.9
			c4.1,0,6.3-0.9,9.5-4.2c1,1.5,1.4,2.2,3.3,3.8c0.5,0.2,0.9,0.2,1.4-0.1l0,0c1.1-1,3.3-2.8,4.4-3.8c0.5-0.4,0.4-1,0-1.5
			c-1-1.5-2.1-2.6-2.1-5.3v-8.9c0-3.8,0.3-7.3-2.5-9.9c-2.1-2.1-5.9-2.9-8.7-2.9c-5.5,0-11.5,2-12.8,8.7c-0.1,0.7,0.4,1.1,0.8,1.2
			L90,17c0.6,0,0.9-0.6,1-1c0.5-2.3,2.4-3.4,4.6-3.4c1.2,0,2.5,0.5,3.3,1.5c0.8,1.2,0.7,2.8,0.7,4.2V18.9L99.6,18.9z M98.4,30.8
			c-0.9,1.6-2.3,2.6-4,2.6c-2.2,0-3.5-1.7-3.5-4.2c0-4.9,4.4-5.8,8.6-5.8v1.2C99.6,27,99.6,28.9,98.4,30.8z"/>
		<path id="a" class="st2" d="M34.6,33.4c-1-1.5-2.1-2.6-2.1-5.3v-8.9c0-3.8,0.3-7.3-2.5-9.9c-2.2-2.1-5.9-2.9-8.7-2.9
			c-5.5,0-11.5,2-12.8,8.7c-0.1,0.7,0.4,1.1,0.8,1.2l5.6,0.6c0.6,0,0.9-0.6,1-1c0.5-2.3,2.4-3.4,4.7-3.4c1.2,0,2.5,0.5,3.3,1.5
			c0.8,1.2,0.7,2.8,0.7,4.2v0.7c-3.4,0.4-7.7,0.7-10.9,2c-3.6,1.6-6.1,4.7-6.1,9.4c0,6,3.7,8.9,8.6,8.9c4.1,0,6.3-0.9,9.5-4.2
			c1,1.5,1.4,2.2,3.3,3.8c0.5,0.2,0.9,0.2,1.4-0.1l0,0c1.1-1,3.3-2.8,4.4-3.8C35.1,34.5,35,33.9,34.6,33.4z M23.4,30.8
			c-0.9,1.6-2.3,2.6-4,2.6c-2.2,0-3.4-1.7-3.4-4.2c0-4.9,4.4-5.8,8.6-5.8v1.2C24.4,27,24.5,28.9,23.4,30.8z"/>
	</g>
</g>
<g id="Layer_2" class="st0">
	<g>
		<polygon class="st3" points="76.4,58.9 85.4,7.8 99.6,7.8 90.8,58.9 		"/>
		<polygon class="st3" points="76.4,58.9 88,7.8 99.6,7.8 90.8,58.9 		"/>
		<path class="st3" d="M142.2,8.4c-2.8-1.1-7.4-2.3-13.1-2.3c-14.2,0-24.4,7.1-24.4,17.3c0,7.7,7.1,11.6,12.8,14.2s7.4,4.3,7.4,6.5
			c0,3.4-4.5,5.1-8.5,5.1c-5.7,0-8.8-0.9-13.6-2.8l-2-0.9l-2,11.6c3.4,1.4,9.7,2.8,16.2,2.8c15,0,25-7.1,25-17.9
			c0-6-3.7-10.5-12.2-14.2c-5.1-2.6-8.2-4-8.2-6.5c0-2.3,2.6-4.5,8.2-4.5c4.8,0,8.2,0.9,10.8,2l1.4,0.6L142.2,8.4L142.2,8.4z"/>
		<path class="st3" d="M142.2,8.4c-2.8-1.1-7.4-2.3-13.1-2.3c-14.2,0-21.9,7.1-21.9,17.3c0,7.7,4.5,11.6,10.2,14.2s7.4,4.3,7.4,6.5
			c0,3.4-4.5,5.1-8.5,5.1c-5.7,0-8.8-0.9-13.6-2.8l-2-0.9l-2,11.6c3.4,1.4,9.7,2.8,16.2,2.8c15,0,25-7.1,25-17.9
			c0-6-3.7-10.5-12.2-14.2c-5.1-2.6-8.2-4-8.2-6.5c0-2.3,2.6-4.5,8.2-4.5c4.8,0,8.2,0.9,10.8,2l1.4,0.6L142.2,8.4L142.2,8.4z"/>
		<path class="st3" d="M166.6,7.8c-3.4,0-6,0.3-7.4,3.7L138,58.9h15.3l2.8-8.5h18.2l1.7,8.5h13.6L177.7,7.8H166.6z M160.1,41.9
			c0.9-2.6,5.7-15,5.7-15s1.1-3.1,2-5.1l0.9,4.8c0,0,2.8,12.8,3.4,15.6h-11.9V41.9z"/>
		<path class="st3" d="M170,7.8c-3.4,0-6,0.3-7.4,3.7L138,58.9h15.3l2.8-8.5h18.2l1.7,8.5h13.6L177.7,7.8H170z M160.1,41.9
			c1.1-2.8,5.7-15,5.7-15s1.1-3.1,2-5.1l0.9,4.8c0,0,2.8,12.8,3.4,15.6h-11.9V41.9z"/>
		<path class="st3" d="M50.2,43.6l-1.4-7.4C46.3,27.7,38,18.3,28.9,13.8l12.8,45.4h15.3L80,8.1H64.7L50.2,43.6z"/>
		<path class="st3" d="M50.2,43.6l-1.4-7.4C46.3,27.7,38,18.3,28.9,13.8l12.8,45.4h15.3L80,8.1H67.6L50.2,43.6z"/>
		<path class="st3" d="M10.8,7.8l2.6,0.6c18.2,4.3,30.7,15,35.5,27.8l-5.1-24.1c-0.9-3.4-3.4-4.3-6.5-4.3H10.8z"/>
		<path class="st3" d="M10.8,7.8L10.8,7.8c18.2,4.3,33.2,15.3,38,28.1L44,15.8c-0.9-3.4-3.7-5.4-6.8-5.4L10.8,7.8z"/>
		<path class="st3" d="M10.8,7.8L10.8,7.8c18.2,4.3,33.2,15.3,38,28.1l-3.4-11.1c-0.9-3.4-2-6.8-6-8.2L10.8,7.8z"/>
		<g class="st1">
			<path class="st2" d="M64.4,41.9l-9.7-9.7L50.2,43l-1.1-7.1c-2.6-8.5-10.8-17.9-19.9-22.4L42,58.9h15.3L64.4,41.9z"/>
			<polygon class="st2" points="90.8,58.9 78.6,46.4 76.4,58.9 			"/>
			<path class="st2" d="M123.5,41.3L123.5,41.3c1.1,1.1,1.7,2,1.4,3.1c0,3.4-4.5,5.1-8.5,5.1c-5.7,0-8.8-0.9-13.6-2.8l-2-0.9
				l-2,11.6c3.4,1.4,9.7,2.8,16.2,2.8c9.1,0,16.5-2.6,20.7-7.1L123.5,41.3z"/>
			<path class="st2" d="M139.9,58.9h13.3l2.8-8.5h18.2l1.7,8.5h13.6l-4.8-20.7l-17-16.5l0.9,4.5c0,0,2.8,12.8,3.4,15.6h-11.9
				c1.1-2.8,5.7-15,5.7-15s1.1-3.1,2-5.1"/>
		</g>
	</g>
	<g transform="translate(1565.7 -1106.8)" class="st1">
		<g transform="matrix(3.1437 0 0 3.1437 -4835.7 -1027.6)">
			<g transform="matrix(1.25 0 0 -1.25 1102.5 727.74)">
				<path class="st2" d="M-30.5,23.2c0,0.3,0.2,0.6,0.5,0.6c0.3,0,0.5-0.2,0.5-0.6c0-0.3-0.2-0.6-0.5-0.6
					C-30.3,22.6-30.5,22.9-30.5,23.2 M-29,23.2v0.9h-0.4v-0.2c-0.1,0.2-0.3,0.3-0.6,0.3c-0.5,0-0.9-0.4-0.9-0.9
					c0-0.5,0.4-0.9,0.9-0.9c0.3,0,0.4,0.1,0.6,0.3v-0.2h0.4V23.2z M-16.1,23.2c0,0.3,0.2,0.6,0.5,0.6c0.3,0,0.5-0.2,0.5-0.6
					c0-0.3-0.2-0.6-0.5-0.6C-15.9,22.6-16.1,22.9-16.1,23.2 M-14.7,23.2v1.6h-0.4v-0.9c-0.1,0.2-0.3,0.3-0.6,0.3
					c-0.5,0-0.9-0.4-0.9-0.9c0-0.5,0.4-0.9,0.9-0.9c0.3,0,0.4,0.1,0.6,0.3v-0.2h0.4V23.2z M-24.3,23.8c0.2,0,0.4-0.2,0.4-0.4h-0.9
					C-24.7,23.6-24.6,23.8-24.3,23.8 M-24.3,24.1c-0.5,0-0.9-0.4-0.9-0.9c0-0.6,0.4-0.9,0.9-0.9c0.3,0,0.5,0.1,0.7,0.2l-0.2,0.3
					c-0.1-0.1-0.3-0.2-0.5-0.2c-0.2,0-0.5,0.1-0.5,0.4h1.3c0,0,0,0.1,0,0.1C-23.5,23.8-23.8,24.1-24.3,24.1 M-19.7,23.2
					c0,0.3,0.2,0.6,0.5,0.6c0.3,0,0.5-0.2,0.5-0.6c0-0.3-0.2-0.6-0.5-0.6C-19.5,22.6-19.7,22.9-19.7,23.2 M-18.2,23.2v0.9h-0.4v-0.2
					c-0.1,0.2-0.3,0.3-0.6,0.3c-0.5,0-0.9-0.4-0.9-0.9c0-0.5,0.4-0.9,0.9-0.9c0.3,0,0.4,0.1,0.6,0.3v-0.2h0.4V23.2z M-21.8,23.2
					c0-0.5,0.4-0.9,0.9-0.9c0.3,0,0.4,0.1,0.6,0.2l-0.2,0.3c-0.1-0.1-0.3-0.2-0.5-0.2c-0.3,0-0.5,0.2-0.5,0.6c0,0.3,0.2,0.6,0.5,0.6
					c0.2,0,0.3-0.1,0.5-0.2l0.2,0.3c-0.2,0.2-0.4,0.2-0.6,0.2C-21.5,24.1-21.8,23.7-21.8,23.2 M-16.9,24.1c-0.2,0-0.4-0.1-0.5-0.3
					v0.2h-0.4v-1.8h0.4v1c0,0.3,0.1,0.5,0.4,0.5c0.1,0,0.2,0,0.2,0l0.1,0.4C-16.7,24.1-16.8,24.1-16.9,24.1 M-27.1,23.9
					c-0.2,0.1-0.4,0.2-0.7,0.2c-0.4,0-0.7-0.2-0.7-0.6c0-0.3,0.2-0.5,0.6-0.5l0.2,0c0.2,0,0.3-0.1,0.3-0.2c0-0.1-0.1-0.2-0.4-0.2
					c-0.3,0-0.5,0.1-0.6,0.2l-0.2-0.3c0.2-0.2,0.5-0.2,0.8-0.2c0.5,0,0.8,0.2,0.8,0.6c0,0.3-0.2,0.5-0.6,0.5l-0.2,0
					c-0.2,0-0.3,0.1-0.3,0.2c0,0.1,0.1,0.2,0.3,0.2c0.2,0,0.4-0.1,0.5-0.2L-27.1,23.9z M-22.2,24.1c-0.2,0-0.4-0.1-0.5-0.3v0.2h-0.4
					v-1.8h0.4v1c0,0.3,0.1,0.5,0.4,0.5c0.1,0,0.2,0,0.2,0l0.1,0.4C-22,24.1-22.1,24.1-22.2,24.1 M-25.5,24.1h-0.6v0.5h-0.4v-0.5
					h-0.4v-0.3h0.4v-0.8c0-0.4,0.2-0.7,0.6-0.7c0.2,0,0.4,0.1,0.5,0.1l-0.1,0.3c-0.1-0.1-0.2-0.1-0.3-0.1c-0.2,0-0.3,0.1-0.3,0.3
					v0.8h0.6V24.1z M-31.2,22.3v1.1c0,0.4-0.3,0.7-0.7,0.7c-0.2,0-0.5-0.1-0.6-0.3c-0.1,0.2-0.3,0.3-0.6,0.3c-0.2,0-0.4-0.1-0.5-0.3
					v0.2H-34v-1.8h0.4v1c0,0.3,0.2,0.5,0.4,0.5c0.3,0,0.4-0.2,0.4-0.5v-1h0.4v1c0,0.3,0.2,0.5,0.4,0.5c0.3,0,0.4-0.2,0.4-0.5v-1
					L-31.2,22.3z"/>
			</g>
			<path class="st4" d="M1075.7,693.9h-7.2v-13h7.2V693.9z"/>
			<g transform="matrix(1.25 0 0 -1.25 1064.5 698.59)">
				<path class="st2" d="M3.5,9c0,2.1,1,4,2.5,5.2c-1.1,0.9-2.5,1.4-4.1,1.4c-3.7,0-6.6-3-6.6-6.6s3-6.6,6.6-6.6
					c1.5,0,3,0.5,4.1,1.4C4.5,5,3.5,6.9,3.5,9"/>
			</g>
			<g transform="matrix(1.25 0 0 -1.25 1103.8 698.59)">
				<path class="st5" d="M-14.7,9c0-3.7-3-6.6-6.6-6.6c-1.5,0-3,0.5-4.1,1.4c1.5,1.2,2.5,3.1,2.5,5.2s-1,4-2.5,5.2
					c1.1,0.9,2.6,1.4,4.1,1.4C-17.6,15.6-14.7,12.6-14.7,9"/>
			</g>
		</g>
	</g>
</g>
<g id="Layer_3" class="st0">
	<g class="st1">
		<path class="st2" d="M95.9,32.5v18.3h-5.8V5.6h15.4c3.7-0.1,7.3,1.3,10,3.9c2.7,2.4,4.2,5.9,4.2,9.6c0.1,3.7-1.4,7.2-4.2,9.6
			c-2.7,2.6-6,3.9-10,3.9L95.9,32.5L95.9,32.5z M95.9,11.2V27h9.8c2.2,0.1,4.3-0.8,5.8-2.3c3.1-3,3.1-7.9,0.2-10.9
			c-0.1-0.1-0.1-0.1-0.2-0.2c-1.5-1.6-3.6-2.5-5.8-2.4L95.9,11.2L95.9,11.2z"/>
		<path class="st2" d="M133.1,18.9c4.3,0,7.7,1.1,10.2,3.4c2.5,2.3,3.7,5.5,3.7,9.5v19.1h-5.6v-4.3h-0.3c-2.4,3.5-5.6,5.3-9.6,5.3
			c-3.4,0-6.3-1-8.6-3c-2.2-1.9-3.5-4.7-3.4-7.6c0-3.2,1.2-5.8,3.6-7.7c2.4-1.9,5.7-2.8,9.7-2.8c3.5,0,6.3,0.6,8.5,1.9v-1.3
			c0-2-0.9-3.9-2.4-5.2c-1.5-1.4-3.5-2.1-5.6-2.1c-3.3,0-5.8,1.4-7.7,4.1l-5.1-3.2C123.4,20.9,127.6,18.9,133.1,18.9z M125.6,41.4
			c0,1.5,0.7,2.9,1.9,3.8c1.3,1,2.9,1.5,4.5,1.5c2.5,0,4.8-1,6.5-2.7c1.9-1.8,2.9-3.9,2.9-6.4c-1.8-1.4-4.3-2.2-7.6-2.2
			c-2.4,0-4.3,0.6-5.9,1.7C126.4,38.3,125.6,39.7,125.6,41.4L125.6,41.4z"/>
		<path class="st2" d="M179,19.9l-19.4,44.7h-6l7.2-15.6l-12.8-29h6.3l9.2,22.3h0.1l9-22.3H179z"/>
		<path class="st2" d="M72.4,28.6c0-1.8-0.1-3.5-0.4-5.3H47.4v10h14.1c-0.6,3.2-2.5,6.1-5.2,7.9v6.5h8.4
			C69.6,43.2,72.4,36.5,72.4,28.6z"/>
		<path class="st2" d="M47.4,54c7,0,12.9-2.3,17.2-6.3l-8.4-6.5c-2.3,1.6-5.3,2.5-8.9,2.5c-6.8,0-12.5-4.6-14.6-10.7h-8.6v6.7
			C28.6,48.5,37.6,54,47.4,54z"/>
		<path class="st2" d="M32.8,33c-1.1-3.2-1.1-6.7,0-10v-6.7h-8.6c-3.7,7.4-3.7,16,0,23.4L32.8,33z"/>
		<path class="st2" d="M47.4,12.3c3.7-0.1,7.3,1.3,10,3.9l0,0l7.4-7.4c-4.7-4.4-11-6.9-17.4-6.8c-9.8,0-18.8,5.5-23.3,14.3l8.6,6.7
			C34.9,16.8,40.6,12.3,47.4,12.3z"/>
	</g>
</g>
<g id="Layer_4">
	<g id="XMLID_1_">
		<g id="XMLID_13_">
			<path id="XMLID_65_" class="st2" d="M16.1,54.9h1.3l-1.2,5c-0.2,0.7-0.1,1.3,0.1,1.7c0.2,0.4,0.7,0.5,1.4,0.5
				c0.6,0,1.2-0.2,1.6-0.5c0.4-0.4,0.7-0.9,0.9-1.7l1.2-5h1.3L21.4,60c-0.3,1.1-0.7,1.9-1.4,2.5c-0.7,0.5-1.6,0.8-2.7,0.8
				c-1.1,0-1.8-0.3-2.3-0.8c-0.4-0.5-0.5-1.4-0.2-2.5L16.1,54.9z"/>
			<path id="XMLID_63_" class="st2" d="M22.5,63.1l2-8.5l3.9,5c0.1,0.1,0.2,0.3,0.3,0.4c0.1,0.2,0.2,0.3,0.3,0.5l1.4-5.7h1.2l-2,8.5
				l-3.9-5.1c-0.1-0.1-0.2-0.3-0.3-0.4c-0.1-0.2-0.2-0.3-0.2-0.5l-1.4,5.7L22.5,63.1L22.5,63.1z"/>
			<path id="XMLID_61_" class="st2" d="M31.5,63.1l1.9-8.2h1.3l-1.9,8.2H31.5z"/>
			<path id="XMLID_59_" class="st2" d="M34.6,63.1l1.9-8.2H41l-0.3,1.1h-3.1l-0.5,2h3.1L40,59.2h-3.1l-0.9,3.8L34.6,63.1L34.6,63.1z
				"/>
			<path id="XMLID_57_" class="st2" d="M40.5,63.1l1.9-8.2h1.3l-1.9,8.2H40.5z"/>
			<path id="XMLID_55_" class="st2" d="M43.6,63.1l1.9-8.2H50l-0.3,1.1h-3.1l-0.5,2.1h3.1L49,59.3h-3.1l-0.6,2.6h3.1l-0.3,1.2
				L43.6,63.1L43.6,63.1z"/>
			<path id="XMLID_52_" class="st2" d="M49.6,63.1l1.9-8.2h1.7c1.1,0,1.9,0.1,2.4,0.2s0.8,0.3,1.1,0.6c0.4,0.4,0.6,0.8,0.7,1.4
				c0.1,0.6,0.1,1.2-0.1,1.9c-0.2,0.7-0.4,1.4-0.8,1.9c-0.4,0.6-0.8,1-1.4,1.4c-0.4,0.3-0.9,0.5-1.3,0.6c-0.5,0.1-1.2,0.2-2.1,0.2
				h-0.3L49.6,63.1L49.6,63.1z M51.2,61.9h1.1c0.6,0,1.1,0,1.4-0.1c0.3-0.1,0.6-0.2,0.9-0.4c0.4-0.3,0.7-0.6,0.9-1
				c0.2-0.4,0.4-0.9,0.5-1.4c0.1-0.5,0.2-1,0.1-1.4c-0.1-0.4-0.2-0.7-0.4-1c-0.2-0.2-0.4-0.3-0.7-0.4c-0.3-0.1-0.8-0.1-1.4-0.1H53
				h-0.5L51.2,61.9z"/>
			<path id="XMLID_49_" class="st2" d="M63.3,59.4l-0.9,3.7h-1.2l1.9-8.2h2c0.6,0,1,0,1.3,0.1c0.3,0.1,0.5,0.2,0.6,0.3
				c0.2,0.2,0.3,0.4,0.4,0.8c0.1,0.3,0,0.7,0,1.1c-0.1,0.4-0.2,0.8-0.5,1.1c-0.2,0.3-0.5,0.6-0.8,0.8c-0.2,0.1-0.5,0.3-0.8,0.3
				c-0.3,0.1-0.7,0.1-1.3,0.1h-0.3L63.3,59.4L63.3,59.4z M63.6,58.3H64c0.7,0,1.2-0.1,1.5-0.2c0.3-0.2,0.5-0.4,0.6-0.9
				c0.1-0.4,0-0.8-0.2-0.9c-0.2-0.2-0.7-0.3-1.3-0.3h-0.3L63.6,58.3z"/>
			<path id="XMLID_46_" class="st2" d="M71.8,63.1L71.4,61h-3.2l-1.4,2.1h-1.4l5.9-8.5l1.8,8.5H71.8z M69,59.9h2.2L70.8,58
				c0-0.1,0-0.3,0-0.4c0-0.2,0-0.3,0-0.5c-0.1,0.2-0.2,0.3-0.3,0.5c-0.1,0.2-0.2,0.3-0.2,0.4L69,59.9z"/>
			<path id="XMLID_44_" class="st2" d="M75,63.1l0.9-3.7l-1.6-4.4h1.4l1,2.8c0,0.1,0,0.2,0.1,0.3c0,0.1,0.1,0.2,0.1,0.4
				c0.1-0.1,0.2-0.2,0.2-0.4c0.1-0.1,0.2-0.2,0.2-0.3l2.4-2.7H81l-3.8,4.4l-0.9,3.7L75,63.1L75,63.1z"/>
			<path id="XMLID_42_" class="st2" d="M87.4,59.1c0-0.1,0-0.2,0.1-0.5c0-0.2,0-0.4,0.1-0.6c-0.1,0.2-0.2,0.4-0.3,0.6
				c-0.1,0.2-0.2,0.4-0.4,0.6l-3.1,4.4l-1-4.4c0-0.2-0.1-0.4-0.1-0.5c0-0.2,0-0.3,0-0.5c0,0.2-0.1,0.3-0.2,0.5
				c-0.1,0.2-0.1,0.4-0.2,0.6l-1.8,4h-1.2l3.9-8.5l1.1,5.2c0,0.1,0,0.2,0.1,0.4c0,0.2,0.1,0.4,0.1,0.7c0.1-0.2,0.3-0.5,0.6-0.9
				c0.1-0.1,0.1-0.2,0.1-0.2l3.5-5.2l-0.1,8.5h-1.2L87.4,59.1z"/>
			<path id="XMLID_40_" class="st2" d="M89.5,63.1l1.9-8.2h4.4l-0.3,1.1h-3.1L92,58.1h3.1l-0.3,1.2h-3.1l-0.6,2.6h3.1L94,63.1
				L89.5,63.1L89.5,63.1z"/>
			<path id="XMLID_38_" class="st2" d="M95.5,63.1l2-8.5l3.9,5c0.1,0.1,0.2,0.3,0.3,0.4c0.1,0.2,0.2,0.3,0.3,0.5l1.4-5.7h1.2l-2,8.5
				l-3.9-5.1c-0.1-0.1-0.2-0.3-0.3-0.4c-0.1-0.2-0.2-0.3-0.2-0.5l-1.4,5.7L95.5,63.1L95.5,63.1z"/>
			<path id="XMLID_36_" class="st2" d="M108.7,56l-1.7,7h-1.3l1.7-7h-2.1l0.3-1.1h5.5l-0.3,1.1H108.7z"/>
			<path id="XMLID_34_" class="st2" d="M110.1,61.5l1.2-0.5c0,0.4,0.1,0.6,0.3,0.8c0.2,0.2,0.5,0.3,0.9,0.3c0.4,0,0.7-0.1,1-0.3
				c0.3-0.2,0.5-0.5,0.5-0.9c0.1-0.5-0.2-0.9-0.9-1.3c-0.1-0.1-0.2-0.1-0.2-0.1c-0.8-0.4-1.3-0.8-1.5-1.2s-0.2-0.8-0.1-1.3
				c0.2-0.7,0.5-1.2,1.1-1.6c0.5-0.4,1.2-0.6,1.9-0.6c0.6,0,1.1,0.1,1.4,0.3s0.5,0.6,0.6,1l-1.1,0.5c-0.1-0.3-0.2-0.4-0.4-0.6
				c-0.2-0.1-0.4-0.2-0.6-0.2c-0.3,0-0.6,0.1-0.9,0.3c-0.2,0.2-0.4,0.4-0.5,0.8c-0.1,0.5,0.2,1,1,1.4c0.1,0,0.1,0.1,0.1,0.1
				c0.7,0.4,1.2,0.7,1.4,1.1s0.2,0.8,0.1,1.3c-0.2,0.8-0.6,1.4-1.2,1.8c-0.6,0.4-1.3,0.7-2.1,0.7c-0.7,0-1.2-0.2-1.6-0.5
				C110.2,62.5,110,62,110.1,61.5z"/>
			<path id="XMLID_32_" class="st2" d="M119.6,63.1l1.9-8.2h1.3l-1.9,8.2H119.6z"/>
			<path id="XMLID_30_" class="st2" d="M122.8,63.1l2-8.5l3.9,5c0.1,0.1,0.2,0.3,0.3,0.4c0.1,0.2,0.2,0.3,0.3,0.5l1.4-5.7h1.2
				l-2,8.5l-3.9-5.1c-0.1-0.1-0.2-0.3-0.3-0.4c-0.1-0.2-0.2-0.3-0.2-0.5l-1.4,5.7L122.8,63.1L122.8,63.1z"/>
			<path id="XMLID_28_" class="st2" d="M136,56l-1.7,7H133l1.7-7h-2.1l0.3-1.1h5.5l-0.3,1.1H136z"/>
			<path id="XMLID_26_" class="st2" d="M137.4,63.1l1.9-8.2h4.5l-0.3,1.1h-3.1l-0.5,2.1h3.1l-0.3,1.2h-3.1l-0.6,2.6h3.1l-0.3,1.2
				L137.4,63.1L137.4,63.1z"/>
			<path id="XMLID_23_" class="st2" d="M145.4,59.4l-0.9,3.7h-1.2l1.9-8.2h1.8c0.5,0,0.9,0,1.2,0.1c0.3,0.1,0.5,0.2,0.7,0.3
				c0.2,0.2,0.3,0.4,0.4,0.8c0.1,0.3,0,0.6,0,1c-0.2,0.6-0.4,1.2-0.8,1.5c-0.4,0.4-0.9,0.6-1.5,0.7l1.8,3.7h-1.5l-1.8-3.7H145.4z
				 M145.8,58.4h0.2c0.7,0,1.2-0.1,1.4-0.2c0.3-0.2,0.4-0.4,0.5-0.9c0.1-0.4,0.1-0.8-0.1-1c-0.2-0.2-0.6-0.3-1.3-0.3h-0.2
				L145.8,58.4z"/>
			<path id="XMLID_21_" class="st2" d="M149.6,63.1l1.9-8.2h4.4l-0.3,1.1h-3.1l-0.5,2h3.1l-0.3,1.2h-3.1l-0.9,3.8L149.6,63.1
				L149.6,63.1z"/>
			<path id="XMLID_18_" class="st2" d="M160.3,63.1l-0.4-2.1h-3.2l-1.4,2.1H154l5.9-8.5l1.8,8.5H160.3z M157.5,59.9h2.2l-0.4-1.9
				c0-0.1,0-0.3,0-0.4c0-0.2,0-0.3,0-0.5c-0.1,0.2-0.2,0.3-0.3,0.5c-0.1,0.2-0.2,0.3-0.2,0.4L157.5,59.9z"/>
			<path id="XMLID_16_" class="st2" d="M170.1,56.9c-0.3-0.3-0.6-0.6-1-0.7c-0.4-0.2-0.8-0.2-1.2-0.2c-0.9,0-1.6,0.3-2.3,0.9
				c-0.7,0.6-1.1,1.3-1.4,2.2c-0.2,0.9-0.1,1.6,0.3,2.2c0.4,0.6,1,0.9,1.8,0.9c0.5,0,0.9-0.1,1.4-0.3c0.5-0.2,0.9-0.4,1.4-0.8
				l-0.4,1.5c-0.4,0.3-0.8,0.4-1.3,0.6c-0.4,0.1-0.9,0.2-1.4,0.2c-0.6,0-1.2-0.1-1.6-0.3c-0.5-0.2-0.9-0.5-1.2-0.9
				c-0.3-0.4-0.5-0.9-0.6-1.4c-0.1-0.5-0.1-1.1,0.1-1.7c0.1-0.6,0.4-1.2,0.7-1.7c0.3-0.5,0.8-1,1.2-1.4c0.5-0.4,1-0.7,1.6-0.9
				c0.6-0.2,1.1-0.3,1.7-0.3c0.5,0,0.9,0.1,1.3,0.2c0.4,0.1,0.8,0.3,1.1,0.6L170.1,56.9z"/>
			<path id="XMLID_14_" class="st2" d="M170.3,63.1l1.9-8.2h4.4l-0.3,1.1h-3.1l-0.5,2.1h3.1l-0.3,1.2h-3.1l-0.6,2.6h3.1l-0.3,1.2
				H170.3z"/>
		</g>
		<g id="XMLID_2_">
			<g id="XMLID_6_">
				<path id="XMLID_11_" class="st2" d="M146.6,47.8h-8.9l12.4-44.7h8.9L146.6,47.8z"/>
				<g id="XMLID_9_">
					<path id="XMLID_10_" class="st2" d="M142,4.5c-0.6-0.9-1.6-1.3-2.9-1.3h-49l-2.4,8.8h8.9l0,0h35.6l-2.6,9.4H94v0h-8.9L77.7,48
						h8.9l5-17.9h40.1c1.3,0,2.4-0.4,3.5-1.3c1.1-0.9,1.8-1.9,2.2-3.2l5-17.9C142.7,6.4,142.6,5.3,142,4.5z"/>
				</g>
				<path id="XMLID_7_" class="st2" d="M72.5,45c-0.5,1.8-2.1,3-3.9,3h-46c-1.3,0-2.2-0.4-2.8-1.3c-0.6-0.9-0.8-1.9-0.4-3.2
					L30.6,3.2h8.9l-10,36.1h35.7l10-36.1h8.9L72.5,45z"/>
			</g>
			<g id="XMLID_3_">
				<polygon id="XMLID_5_" class="st2" points="174.4,3.1 185.7,25.6 162,48 				"/>
				<polygon id="XMLID_4_" class="st2" points="166.5,3.1 177.7,25.6 154,48 				"/>
			</g>
		</g>
	</g>
</g>
</svg>
